<svg viewBox="0 0 330 57" fill="none" xmlns="http://www.w3.org/2000/svg">
    <g opacity="0.4">
        <path fill-rule="evenodd" clip-rule="evenodd" d="M314.881 28.7252C310.059 0.94735 299.411 -1.73113 257 3.50005C271.98 8.92829 299.394 22.6383 317.381 42.7252C316.381 37.2252 315.922 34.7252 314.881 28.7252Z" fill="white" fill-opacity="0.38"/>
        <path d="M151.381 23.7252C173.381 19.2252 226.381 7.27673 257 3.50005C186.276 -10.9786 21.32 35.884 0.999725 45.5001C13.7057 45.7646 107.247 32.7525 151.381 23.7252Z" fill="white" fill-opacity="0.6"/>
        <path d="M317.381 42.7252C299.394 22.6383 271.98 8.92829 257 3.50005C226.381 7.27673 173.381 19.2252 151.381 23.7252C107.247 32.7525 13.7057 45.7646 0.999725 45.5001C55.3192 39.7655 257.646 11.091 329 56C326.643 53.1546 324.784 51.0514 322.5 48.5001L317.381 42.7252Z" fill="white" fill-opacity="0.87"/>
        <path d="M151.381 23.7252L151.481 24.215L151.381 23.7252ZM322.5 48.5001L322.126 48.8317L322.127 48.8336L322.5 48.5001ZM329 56L328.734 56.4232L329.385 55.681L329 56ZM0.999725 45.5001L0.785858 45.0481L0.989319 45.9999L0.999725 45.5001ZM314.881 28.7252L315.373 28.6397L314.881 28.7252ZM317.753 42.3916C299.69 22.2196 272.191 8.47304 257.17 3.02996L256.829 3.97014C271.769 9.38354 299.098 23.057 317.008 43.0587L317.753 42.3916ZM256.938 3.00381C226.293 6.78371 173.257 18.7402 151.281 23.2353L151.481 24.215C173.505 19.7102 226.468 7.76974 257.061 3.99629L256.938 3.00381ZM151.281 23.2353C129.229 27.7459 94.8219 33.2541 64.3344 37.6021C49.0919 39.7759 34.8331 41.6591 23.5924 42.9822C12.3333 44.3075 4.14417 45.0654 1.01013 45.0002L0.989319 45.9999C4.20828 46.067 12.4767 45.2975 23.7093 43.9754C34.9604 42.651 49.2277 40.7666 64.4756 38.592C94.9686 34.2433 129.399 28.7317 151.481 24.215L151.281 23.2353ZM1.21359 45.952C6.25012 43.5686 20.3298 38.8469 39.7635 33.3257C59.1806 27.8092 83.904 21.5051 110.202 15.9538C136.5 10.4022 164.366 5.60496 190.069 3.09977C215.782 0.593685 239.293 0.385414 256.899 3.98989L257.1 3.01021C239.345 -0.624619 215.715 -0.404552 189.972 2.10448C164.22 4.61442 136.316 9.41908 109.995 14.9753C83.6732 20.5318 58.9275 26.8415 39.4901 32.3638C20.0693 37.8813 5.90945 42.6235 0.785858 45.0481L1.21359 45.952ZM315.373 28.6397C312.956 14.715 309.045 6.86268 300.225 3.27115C295.853 1.49105 290.319 0.777634 283.254 0.828327C276.186 0.879047 267.545 1.69563 256.938 3.00381L257.061 3.99629C267.661 2.68889 276.254 1.87858 283.261 1.8283C290.272 1.778 295.653 2.48947 299.848 4.19732C308.159 7.58169 311.983 14.9576 314.388 28.8107L315.373 28.6397ZM317.873 42.6357C316.873 37.1358 316.415 34.6375 315.373 28.6397L314.388 28.8107C315.43 34.8128 315.889 37.3145 316.889 42.8146L317.873 42.6357ZM329.266 55.5768C311.332 44.2895 285.218 37.6506 255.345 34.1105C225.459 30.5688 191.753 30.1227 158.595 31.259C92.2804 33.5316 28.0896 42.1374 0.947235 45.0028L1.05222 45.9973C28.2294 43.1282 92.3615 34.5295 158.629 32.2584C191.761 31.123 225.411 31.5702 255.227 35.1035C285.056 38.6383 310.99 45.256 328.734 56.4232L329.266 55.5768ZM322.874 48.1684L317.755 42.3935L317.007 43.0568L322.126 48.8317L322.874 48.1684ZM329.385 55.681C327.022 52.8283 325.158 50.7197 322.872 48.1665L322.127 48.8336C324.41 51.3831 326.264 53.4808 328.615 56.319L329.385 55.681Z" fill="#121212"/>
    </g>
</svg>
